<svg width="168" height="84" viewBox="0 0 168 84" fill="none" xmlns="http://www.w3.org/2000/svg">
<path d="M2.5048 74.3108C0.355867 76.0451 0.0196815 79.193 1.75391 81.3419C3.48814 83.4909 6.63606 83.827 8.78499 82.0928L2.5048 74.3108ZM165.696 42.2468C167.71 40.3572 167.81 37.1929 165.921 35.1793L135.126 2.36592C133.237 0.352322 130.072 0.251869 128.059 2.14155C126.045 4.03123 125.945 7.19547 127.834 9.20906L155.207 38.3765L126.04 65.7491C124.026 67.6388 123.926 70.803 125.815 72.8166C127.705 74.8302 130.869 74.9307 132.883 73.041L165.696 42.2468ZM8.78499 82.0928C36.1577 60.0025 87.1602 41.2189 162.116 43.5984L162.433 33.6034C85.8487 31.1722 32.2603 50.2976 2.5048 74.3108L8.78499 82.0928Z" fill="#8865FF"/>
</svg>
