<svg width="32" height="46" viewBox="0 0 32 46" fill="none" xmlns="http://www.w3.org/2000/svg">
<path fill-rule="evenodd" clip-rule="evenodd" d="M8.94399 0.963379H2.26599L6.9761 14.8166C8.65459 13.6448 10.5647 12.7819 12.6241 12.3103L8.94399 0.963379ZM19.4864 12.2196C21.5366 12.6319 23.4471 13.43 25.139 14.5351L29.734 0.963379H23.224L19.4864 12.2196Z" fill="white"/>
<path d="M19.465 23.8166L28.075 38.7266M12.535 23.8166H29.755M9.07 29.8166L17.68 14.9066M12.535 35.8166L3.925 20.9066M19.465 35.8166H2.245M22.93 29.8166L14.32 44.7266M31 29.8166C31 38.1009 24.2843 44.8166 16 44.8166C7.71573 44.8166 1 38.1009 1 29.8166C1 21.5324 7.71573 14.8166 16 14.8166C24.2843 14.8166 31 21.5324 31 29.8166Z" stroke="white" stroke-width="2" stroke-linecap="round" stroke-linejoin="round"/>
</svg>
